# This file uses centimeters as units for non-parametric coordinates.

mtllib edit1_mesh.mtl
g default
v 93.597017 185.378346 0.642404
v 83.326892 183.419215 0.642404
v 73.383297 180.188341 0.642404
v 63.923044 175.736684 0.642404
v 55.095328 170.134444 0.642404
v 47.039370 163.469972 0.642404
v 39.882219 155.848371 0.642404
v 33.736732 147.389844 0.642404
v 28.699854 138.227777 0.642404
v 24.850997 128.506672 0.642404
v 22.250867 118.379829 0.642404
v 20.940475 108.006959 0.642404
v 20.940475 97.551646 0.642404
v 22.250867 87.178775 0.642404
v 24.850997 77.051936 0.642404
v 28.699861 67.330831 0.642404
v 33.736747 58.168771 0.642404
v 39.882226 49.710247 0.642404
v 47.039384 42.088650 0.642404
v 55.095342 35.424189 0.642404
v 63.923055 29.821950 0.642404
v 73.383304 25.370293 0.642404
v 83.326899 22.139426 0.642404
v 93.597020 20.180295 0.642404
v 104.031701 19.523808 0.642404
v 114.466381 20.180302 0.642404
v 124.736500 22.139433 0.642404
v 134.680091 25.370307 0.642404
v 144.140337 29.821964 0.642404
v 152.968046 35.424196 0.642404
v 161.024000 42.088665 0.642404
v 168.181154 49.710262 0.642404
v 174.326627 58.168786 0.642404
v 179.363512 67.330849 0.642404
v 183.212362 77.051950 0.642404
v 185.812492 87.178786 0.642404
v 187.122884 97.551652 0.642404
v 187.122884 108.006961 0.642404
v 185.812484 118.379826 0.642404
v 183.212354 128.506661 0.642404
v 179.363498 138.227762 0.642404
v 174.326612 147.389818 0.642404
v 168.181140 155.848338 0.642404
v 161.023986 163.469928 0.642404
v 152.968031 170.134393 0.642404
v 144.140322 175.736625 0.642404
v 134.680077 180.188275 0.642404
v 124.736489 183.419142 0.642404
v 114.466374 185.378266 0.642404
v 104.031698 186.034759 0.642404
v 104.031698 102.779302 0.642404
vt 0.655018 0.824167
vt 0.651341 0.804892
vt 0.645278 0.786230
vt 0.636923 0.768476
vt 0.626409 0.751908
vt 0.613901 0.736789
vt 0.599598 0.723357
vt 0.583723 0.711824
vt 0.566528 0.702371
vt 0.548284 0.695147
vt 0.529278 0.690268
vt 0.509811 0.687808
vt 0.490189 0.687808
vt 0.470722 0.690268
vt 0.451716 0.695147
vt 0.433472 0.702371
vt 0.416277 0.711824
vt 0.400402 0.723357
vt 0.386099 0.736790
vt 0.373591 0.751909
vt 0.363077 0.768476
vt 0.354722 0.786231
vt 0.348659 0.804892
vt 0.344982 0.824167
vt 0.343750 0.843750
vt 0.344982 0.863333
vt 0.348659 0.882608
vt 0.354722 0.901270
vt 0.363077 0.919024
vt 0.373591 0.935592
vt 0.386099 0.950711
vt 0.400403 0.964143
vt 0.416277 0.975676
vt 0.433472 0.985129
vt 0.451716 0.992353
vt 0.470722 0.997232
vt 0.490189 0.999692
vt 0.509811 0.999692
vt 0.529278 0.997232
vt 0.548284 0.992353
vt 0.566528 0.985129
vt 0.583723 0.975676
vt 0.599598 0.964143
vt 0.613901 0.950710
vt 0.626409 0.935591
vt 0.636923 0.919024
vt 0.645278 0.901269
vt 0.651341 0.882608
vt 0.655018 0.863333
vt 0.656250 0.843750
vt 0.500000 0.837500
vn -0.000000 0.000000 1.000000
vn 0.000000 -0.000000 1.000000
vn -0.000000 0.000000 1.000000
vn 0.000000 -0.000000 1.000000
vn -0.000000 0.000000 1.000000
vn -0.000000 0.000000 1.000000
vn -0.000000 0.000000 1.000000
vn -0.000000 0.000000 1.000000
vn -0.000000 0.000000 1.000000
vn -0.000000 0.000000 1.000000
vn -0.000000 0.000000 1.000000
vn -0.000000 0.000000 1.000000
vn 0.000000 -0.000000 1.000000
vn -0.000000 0.000000 1.000000
vn 0.000000 -0.000000 1.000000
vn 0.000000 -0.000000 1.000000
vn -0.000000 0.000000 1.000000
vn -0.000000 0.000000 1.000000
vn -0.000000 0.000000 1.000000
vn -0.000000 0.000000 1.000000
vn -0.000000 0.000000 1.000000
vn 0.000000 -0.000000 1.000000
vn 0.000000 -0.000000 1.000000
vn -0.000000 0.000000 1.000000
vn -0.000000 0.000000 1.000000
vn 0.000000 -0.000000 1.000000
vn -0.000000 0.000000 1.000000
vn -0.000000 0.000000 1.000000
vn -0.000000 0.000000 1.000000
vn -0.000000 0.000000 1.000000
vn -0.000000 0.000000 1.000000
vn -0.000000 0.000000 1.000000
vn -0.000000 0.000000 1.000000
vn -0.000000 0.000000 1.000000
vn -0.000000 0.000000 1.000000
vn -0.000000 0.000000 1.000000
vn -0.000000 0.000000 1.000000
vn -0.000000 0.000000 1.000000
vn -0.000000 0.000000 1.000000
vn -0.000000 0.000000 1.000000
vn -0.000000 0.000000 1.000000
vn 0.000000 -0.000000 1.000000
vn -0.000000 0.000000 1.000000
vn -0.000000 0.000000 1.000000
vn -0.000000 0.000000 1.000000
vn -0.000000 0.000000 1.000000
vn -0.000000 0.000000 1.000000
vn -0.000000 0.000000 1.000000
vn -0.000000 0.000000 1.000000
vn 0.000000 -0.000000 1.000000
vn 0.000000 -0.000000 1.000000
s 1
g pCylinder1
usemtl initialShadingGroup
f 1/49/1 2/48/2 51/51/3
f 2/48/2 3/47/4 51/51/3
f 3/47/4 4/46/5 51/51/3
f 4/46/5 5/45/6 51/51/3
f 5/45/6 6/44/7 51/51/3
f 6/44/7 7/43/8 51/51/3
f 7/43/8 8/42/9 51/51/3
f 8/42/9 9/41/10 51/51/3
f 9/41/10 10/40/11 51/51/3
f 10/40/11 11/39/12 51/51/3
f 11/39/12 12/38/13 51/51/3
f 12/38/13 13/37/14 51/51/3
f 13/37/14 14/36/15 51/51/3
f 14/36/15 15/35/16 51/51/3
f 15/35/16 16/34/17 51/51/3
f 16/34/17 17/33/18 51/51/3
f 17/33/18 18/32/19 51/51/3
f 18/32/19 19/31/20 51/51/3
f 19/31/20 20/30/21 51/51/3
f 20/30/21 21/29/22 51/51/3
f 21/29/22 22/28/23 51/51/3
f 22/28/23 23/27/24 51/51/3
f 23/27/24 24/26/25 51/51/3
f 24/26/25 25/25/26 51/51/3
f 25/25/26 26/24/27 51/51/3
f 26/24/27 27/23/28 51/51/3
f 27/23/28 28/22/29 51/51/3
f 28/22/29 29/21/30 51/51/3
f 29/21/30 30/20/31 51/51/3
f 30/20/31 31/19/32 51/51/3
f 31/19/32 32/18/33 51/51/3
f 32/18/33 33/17/34 51/51/3
f 33/17/34 34/16/35 51/51/3
f 34/16/35 35/15/36 51/51/3
f 35/15/36 36/14/37 51/51/3
f 36/14/37 37/13/38 51/51/3
f 37/13/38 38/12/39 51/51/3
f 38/12/39 39/11/40 51/51/3
f 39/11/40 40/10/41 51/51/3
f 40/10/41 41/9/42 51/51/3
f 41/9/42 42/8/43 51/51/3
f 42/8/43 43/7/44 51/51/3
f 43/7/44 44/6/45 51/51/3
f 44/6/45 45/5/46 51/51/3
f 45/5/46 46/4/47 51/51/3
f 46/4/47 47/3/48 51/51/3
f 47/3/48 48/2/49 51/51/3
f 48/2/49 49/1/50 51/51/3
f 49/1/50 50/50/51 51/51/3
f 50/50/51 1/49/1 51/51/3
